<svg xmlns="http://www.w3.org/2000/svg" viewBox="0 0 512 512" role="img" aria-labelledby="title desc">
  <title id="title">台股追蹤 App 圖示</title>
  <desc id="desc">深色圓角方形，內含台灣紅色上漲折線、TW 字樣與資料節點。</desc>
  <defs>
    <linearGradient id="bg" x1="0" y1="0" x2="1" y2="1">
      <stop offset="0" stop-color="#0b2530"/>
      <stop offset="1" stop-color="#0b6d77"/>
    </linearGradient>
    <linearGradient id="rise" x1="0" y1="1" x2="1" y2="0">
      <stop offset="0" stop-color="#d63c4f"/>
      <stop offset="1" stop-color="#ff7b67"/>
    </linearGradient>
  </defs>
  <rect width="512" height="512" rx="112" fill="url(#bg)"/>
  <g opacity="0.2" stroke="#d7f4f2" stroke-width="3">
    <path d="M88 144h336M88 224h336M88 304h336M88 384h336"/>
    <path d="M128 104v304M224 104v304M320 104v304M416 104v304"/>
  </g>
  <path d="M92 350l82-78 62 42 92-118 86 38" fill="none" stroke="url(#rise)" stroke-width="28" stroke-linecap="round" stroke-linejoin="round"/>
  <g fill="#fff">
    <circle cx="92" cy="350" r="14"/>
    <circle cx="174" cy="272" r="14"/>
    <circle cx="236" cy="314" r="14"/>
    <circle cx="328" cy="196" r="14"/>
    <circle cx="414" cy="234" r="14"/>
  </g>
  <rect x="88" y="86" width="164" height="74" rx="24" fill="#fff" opacity="0.96"/>
  <text x="170" y="139" fill="#0b4350" font-family="-apple-system,BlinkMacSystemFont,'Segoe UI',sans-serif" font-size="55" font-weight="800" text-anchor="middle">TW</text>
</svg>
